<svg  width="70" height="79" fill="none">
  <path fill="#FF6875" d="m56.138 17.11-3.772 4.843a28.287 28.287 0 1 1-15.782-5.887l-5.306 5.567 3.936 3.757 8.377-8.8 3.753-3.942-3.93-3.742L34.62.528 30.864 4.47l5.728 5.456a34.399 34.399 0 0 0-6.904 68.344c1.792.283 3.604.426 5.42.426a34.414 34.414 0 0 0 21.03-61.587Z"/>
  <path fill="#FF6875" d="M38.404 61.834V58.3c4.19-.468 8.264-3.113 8.264-8.137 0-6.825-6.347-7.607-10.982-8.178-2.963-.354-5.233-.765-5.233-2.56 0-2.498 3.52-2.767 5.03-2.767 2.245 0 4.64 1.056 5.456 2.403l.236.392 4.652-2.155-.23-.469a9.19 9.19 0 0 0-7.202-4.987V28.73h-5.443v3.097c-5.076.754-8.09 3.565-8.09 7.596 0 6.571 5.966 7.238 10.32 7.727 3.88.457 5.685 1.415 5.685 3.017 0 3.051-4.225 3.289-5.52 3.289-2.883 0-5.658-1.438-6.468-3.35l-.2-.47-5.05 2.14.2.472c1.498 3.506 4.73 5.702 9.129 6.221v3.364h5.446Z"/>
</svg>
