<svg  width="69" height="90" fill="none">
  <path fill="#FF6875" d="M.578 70.801v18.565h67.668V70.801a7.818 7.818 0 0 0-7.808-7.807H8.385a7.817 7.817 0 0 0-7.807 7.807Zm5.205 0A2.606 2.606 0 0 1 8.385 68.2h2.603v15.966H5.783V70.801Zm10.41-2.602h6.73l11.489 11.488L45.9 68.2h6.726v15.966H16.194V68.2Zm46.848 2.602v13.36h-5.205V68.196h2.602a2.606 2.606 0 0 1 2.603 2.606ZM38.539 68.2l-4.127 4.127-4.128-4.127h8.255Z"/>
  <path fill="#FF6875" d="M53.883 52.58h3.957v-5.205h2.602a7.818 7.818 0 0 0 7.807-7.807v-5.205a33.836 33.836 0 0 0-67.671.002v5.205a7.817 7.817 0 0 0 7.807 7.807h3.943a23.415 23.415 0 0 0 41.555 5.203Zm6.559-10.411h-2.753a23.4 23.4 0 0 0 .146-2.603v-5.205a23.4 23.4 0 0 0-.146-2.602h2.748a2.606 2.606 0 0 1 2.602 2.602v5.205a2.606 2.606 0 0 1-2.602 2.608l.005-.005ZM34.412 5.736A28.68 28.68 0 0 1 62 26.716a7.812 7.812 0 0 0-1.563-.158h-3.944a23.422 23.422 0 0 0-44.166 0H8.385c-.525 0-1.048.052-1.563.157a28.68 28.68 0 0 1 27.59-20.979Zm14.945 18.225a18.293 18.293 0 0 1-14.945 7.802H16.38a18.212 18.212 0 0 1 32.977-7.802ZM8.385 42.174a2.606 2.606 0 0 1-2.602-2.603v-5.204a2.606 2.606 0 0 1 2.602-2.603h2.753a23.425 23.425 0 0 0-.146 2.603v5.204c0 .87.05 1.739.146 2.603H8.385Zm7.807-2.603V36.97h18.22a23.511 23.511 0 0 0 17.46-7.815c.505 1.69.762 3.446.76 5.211v5.205a18.11 18.11 0 0 1-1.76 7.807H42.22l-2.29-2.285a7.809 7.809 0 0 1-11.043 0l-3.68 3.68a13.013 13.013 0 0 0 17.01 1.209v2.599h4.927a18.207 18.207 0 0 1-30.95-13.01v.001Z"/>
</svg>
